<svg xmlns="http://www.w3.org/2000/svg" width="247.51" height="83.875" viewBox="0 0 65.489 22.191" xmlns:v="https://vecta.io/nano"><defs><linearGradient id="A" gradientUnits="userSpaceOnUse"><stop stop-color="#cfd0d1" offset="0"/><stop stop-color="#dbdbdb" offset="1"/></linearGradient><linearGradient id="B" gradientUnits="userSpaceOnUse"><stop stop-color="#f4f5f7" offset="0"/><stop stop-color="#e9eaeb" offset="1"/></linearGradient><linearGradient id="C" x1="4.584" x2="12.759" y1="11.944" y2="11.944" href="#B" spreadMethod="reflect"/><linearGradient id="D" x1="4.64" x2="5.904" y1="18.494" y2="20.349" href="#B" gradientUnits="userSpaceOnUse"><stop stop-color="#cfd0d1" offset="0"/><stop stop-color="#b7b7b7" offset="1"/></linearGradient><linearGradient id="E" x1="21.828" x2="20.564" y1="18.544" y2="20.399" href="#B" gradientUnits="userSpaceOnUse"><stop stop-color="#cfd0d1" offset="0"/><stop stop-color="#b7b7b7" offset="1"/></linearGradient><linearGradient id="F" x1="3.589" x2="5.052" y1="18.107" y2="5.391" href="#A"/><linearGradient id="G" x1="-22.878" x2="-20.871" y1="17.81" y2="5.42" href="#A"/><linearGradient id="H" x1="4.64" x2="5.904" y1="5.605" y2="4.743" href="#B" gradientUnits="userSpaceOnUse"><stop stop-color="#dbdbdb" offset="0"/><stop stop-color="#f3f3f3" offset="1"/></linearGradient><linearGradient id="I" x1="21.364" x2="20.464" y1="5.242" y2="3.946" gradientUnits="userSpaceOnUse"><stop stop-color="#dbdbdb" offset="0"/><stop stop-color="#f3f3f3" offset="1"/></linearGradient><linearGradient id="J" x1="25.793" x2="27.057" href="#D"/><linearGradient id="K" x1="43.005" x2="41.741" href="#E"/><linearGradient id="L" x1="24.743" x2="26.44" y1="18.257" y2="5.304" href="#A"/><linearGradient id="M" x1="-44.053" x2="-42.046" y1="17.753" y2="5.363" href="#A"/><linearGradient id="N" x1="25.793" x2="27.057" href="#H"/><linearGradient id="O" x1="42.538" x2="41.638" href="#I"/><linearGradient id="P" x1="26.186" x2="34.39" y1="11.944" y2="11.944" href="#B" spreadMethod="reflect"/><linearGradient id="Q" x1="47.621" x2="55.824" y1="11.944" y2="11.944" href="#B" spreadMethod="reflect"/><linearGradient id="R" x1="45.905" x2="47.649" y1="18.124" y2="5.304" href="#A"/><linearGradient id="S" x1="46.953" x2="48.217" href="#H"/><linearGradient id="T" x1="42.538" x2="41.638" href="#I"/><linearGradient id="U" x1="-65.216" x2="-63.209" y1="17.753" y2="5.363" href="#A"/><linearGradient id="V" x1="43.004" x2="41.74" href="#E"/><linearGradient id="W" x1="46.953" x2="48.217" href="#D"/><linearGradient id="X" href="#D"/><linearGradient id="Y" href="#E"/><linearGradient id="Z" href="#H"/><linearGradient id="a" href="#I"/><filter id="b" color-interpolation-filters="sRGB"><feFlood flood-color="#000"/><feComposite in2="SourceGraphic" operator="in"/><feGaussianBlur stdDeviation=".4"/><feOffset dy="0.5"/><feComposite operator="atop"/></filter><path id="c" d="M42.11 6.722l1.943-1.219V4.418c-.045-.509-.456-1.325-1.467-1.368h-1.337l-.031 2.671z"/><path id="d" d="M41.82 17.311l2.235.433v2.433c-.045.509-.456 1.325-1.467 1.368h-1.197l-.464-3.233z"/></defs><g transform="translate(-1.66 -1.202)"><rect x="3.589" y="3.051" width="19.289" height="18.494" ry="1.507" filter="url(#b)" paint-order="stroke fill markers"/><rect x="24.742" y="3.051" width="19.311" height="18.494" ry="1.507" filter="url(#b)" paint-order="stroke fill markers"/><rect x="45.905" y="3.051" width="19.313" height="18.494" ry="1.507" filter="url(#b)" paint-order="stroke fill markers"/><path fill="url(#F)" d="M3.589 5.391h1.463v12.886H3.589z" paint-order="stroke fill markers"/><path transform="scale(-1 1)" fill="url(#G)" d="M-22.878 5.42h2.007v12.39h-2.007z" paint-order="stroke fill markers"/><path fill="#f3f3f3" d="M5.292 3.051h14.967v1.044H5.292z" paint-order="stroke fill markers"/><path d="M4.889 5.903l-1.299-.433V4.469c.064-.914.846-1.418 1.45-1.418h.276l.467 1.852z" fill="url(#Z)"/><path d="M20.935 6.722l1.943-1.219V4.418c-.045-.509-.456-1.325-1.467-1.368h-1.337l-.461 2.241z" fill="url(#a)"/><path d="M20.643 17.311l2.235.433v2.433c-.045.509-.456 1.325-1.467 1.368h-1.197l-.398-2.191z" fill="url(#Y)"/><path d="M5.808 17.79l-2.218-.096v2.433c.064.914.846 1.418 1.45 1.418H6.25l.483-2.142z" fill="url(#X)"/><path fill="#b7b7b7" d="M6.198 18.111h14.043v3.433H6.198z"/><path transform="scale(-1 1)" fill="url(#M)" d="M-44.053 5.363h2.007v12.39h-2.007z" paint-order="stroke fill markers"/><path fill="#f3f3f3" d="M26.455 3.051h14.851v1.184H26.455z" paint-order="stroke fill markers"/><path d="M26.042 5.903l-1.3-.433V4.469c.064-.914.846-1.418 1.45-1.418h.276l.467 1.852z" fill="url(#N)"/><use href="#c" fill="url(#O)"/><path transform="scale(-1 1)" fill="url(#U)" d="M-65.216 5.363h2.007v12.39h-2.007z" paint-order="stroke fill markers"/><path fill="#f3f3f3" d="M47.618 3.051h14.851v1.524H47.618z" paint-order="stroke fill markers"/><path d="M47.621 6.5l-1.716-1.029V4.469c.064-.914.846-1.418 1.45-1.418h.276l.467 1.852z" fill="url(#S)"/><use href="#c" x="21.163" fill="url(#T)"/><use href="#d" fill="url(#K)"/><path d="M48.14 17.261l-2.235.433v2.433c.064.914.846 1.418 1.45 1.418h1.211l.467-3.282z" fill="url(#W)"/><use href="#d" x="21.163" fill="url(#V)"/><path d="M26.919 17.928l-2.176-.234v2.433c.064.914.846 1.418 1.45 1.418h1.211l1.016-2.523z" fill="url(#J)"/><path fill="#b7b7b7" d="M27.403 18.111h14.241v3.433H27.403z"/><path fill="url(#L)" d="M24.742 5.304h1.697v12.952h-1.697z" paint-order="stroke fill markers"/><rect x="26.185" y="3.946" width="16.409" height="15.996" ry="1.303" fill="url(#P)" paint-order="stroke fill markers"/><path fill="#b7b7b7" d="M48.368 18.111h14.506v3.433H48.368z"/><path fill="url(#R)" d="M45.905 5.304h1.744v12.82h-1.744z" paint-order="stroke fill markers"/><rect x="47.621" y="3.946" width="16.407" height="15.996" ry="1.303" fill="url(#Q)" paint-order="stroke fill markers"/><rect x="4.584" y="3.946" width="16.351" height="15.996" ry="1.303" fill="url(#C)" paint-order="stroke fill markers"/></g><path d="M7.991 15.607l.401 1.18h.598l-1.468-4.053h-.621l-1.524 4.053h.564l.423-1.18zm-1.456-.485l.649-1.784h.011l.598 1.784zm23.545-.684h-2.117v-1.676h-.548v4.053h.548v-1.891h2.117v1.891h.548v-4.053h-.548z"/><path d="M49.158 15.37l.638-.61 1.417 2.032h.711l-1.733-2.416 1.688-1.637h-.756l-1.964 1.964V12.74h-.548v4.053h.548z"/></svg>