<svg xmlns="http://www.w3.org/2000/svg" xml:space="preserve" width="512" height="512" viewBox="0 0 512 512"><path d="M238.8 155.5a387 387 0 0 1 77.9 91.5c29.9-53.4 49.8-116.9 50.1-157.3v-.8c0-59.8-59.7-83.1-111.1-83.1S144.6 29 144.6 88.8V92a395 395 0 0 1 94.2 63.5" style="fill:#fa2921"/><path d="M55.9 318.6c21-23.3 53.1-48.6 89.4-69.9a385 385 0 0 1 111.1-45.8c-41.6-44.9-95.8-83.5-134.1-96.2l-.7-.2C64.6 87.8 24 137.4 8.1 186.3S-4.1 299.1 52.8 317.6z" style="fill:#ed79b5"/><path d="M503.9 185.4C488 136.6 447.4 87 390.5 105.5l-3.1 1a392 392 0 0 1-31.2 109.1A388 388 0 0 1 293.3 318c60 11.9 126.5 11.3 165.1-1l.7-.2c57-18.6 60.6-82.5 44.8-131.4" style="fill:#ffb400"/><path d="M205 366.3a387 387 0 0 1-9.3-119.8c-55.5 25.7-109 65.3-133 97.8l-.5.6c-35.2 48.4-.6 102.3 41 132.5s103.5 46.4 138.7-1.9l1.9-2.6A394 394 0 0 1 205 366.3" style="fill:#1e83f7"/><path d="M448.8 341.9a391 391 0 0 1-113.4 4 387 387 0 0 1-116.8-28.2c7.2 60.8 28.4 123.8 51.9 156.7l.5.6c35.2 48.4 97.1 32.2 138.7 1.9 41.6-30.2 76.2-84.1 41-132.5z" style="fill:#18c249"/></svg>